<svg width="21" height="21" viewBox="0 0 21 21" fill="none" xmlns="http://www.w3.org/2000/svg">
<rect x="20.5" y="20.5" width="20" height="0.999999" rx="0.499999" transform="rotate(-180 20.5 20.5)" fill="#F2F5FA" stroke="#F2F5FA" stroke-width="0.999999"/>
<circle cx="7" cy="4" r="3" stroke="#F2F5FA" stroke-width="2"/>
<path d="M0.292893 16.2927C-0.0976311 16.6833 -0.0976311 17.3164 0.292893 17.707C0.683417 18.0975 1.31658 18.0975 1.70711 17.707L0.292893 16.2927ZM6.29289 11.707L7 12.4141L7 12.4141L6.29289 11.707ZM7.70711 11.707L7 12.4141L7 12.4141L7.70711 11.707ZM9.29289 14.707C9.68342 15.0975 10.3166 15.0975 10.7071 14.707C11.0976 14.3164 11.0976 13.6833 10.7071 13.2927L9.29289 14.707ZM6.79289 16.2927C6.40237 16.6833 6.40237 17.3164 6.79289 17.707C7.18342 18.0975 7.81658 18.0975 8.20711 17.707L6.79289 16.2927ZM12.7929 11.707L13.5 12.4141L13.5 12.4141L12.7929 11.707ZM14.2071 11.707L13.5 12.4141L13.5 12.4141L14.2071 11.707ZM18.2929 17.207C18.6834 17.5975 19.3166 17.5975 19.7071 17.207C20.0976 16.8164 20.0976 16.1833 19.7071 15.7927L18.2929 17.207ZM1.70711 17.707L7 12.4141L5.58579 10.9998L0.292893 16.2927L1.70711 17.707ZM7 12.4141L9.29289 14.707L10.7071 13.2927L8.41421 10.9998L7 12.4141ZM7 12.4141L7 12.4141L8.41421 10.9998C7.63317 10.2188 6.36683 10.2188 5.58579 10.9998L7 12.4141ZM8.20711 17.707L13.5 12.4141L12.0858 10.9998L6.79289 16.2927L8.20711 17.707ZM13.5 12.4141L18.2929 17.207L19.7071 15.7927L14.9142 10.9998L13.5 12.4141ZM13.5 12.4141L13.5 12.4141L14.9142 10.9998C14.1332 10.2188 12.8668 10.2188 12.0858 10.9998L13.5 12.4141Z" fill="#F2F5FA"/>
</svg>
