<svg width="21" height="21" viewBox="0 0 21 21" fill="none" xmlns="http://www.w3.org/2000/svg">
<path d="M1.04977 11.5501H2.09976V18.9C2.09976 20.0582 3.0416 21 4.19973 21H16.7996C17.9577 21 18.8996 20.0582 18.8996 18.9V11.5501H19.9496C20.1572 11.5501 20.3602 11.4884 20.5328 11.3731C20.7054 11.2577 20.84 11.0937 20.9194 10.9019C20.9989 10.7101 21.0197 10.499 20.9792 10.2953C20.9387 10.0917 20.8387 9.90461 20.6919 9.75776L11.242 0.307858C11.1446 0.210266 11.0289 0.132842 10.9015 0.0800163C10.7741 0.0271906 10.6376 0 10.4997 0C10.3618 0 10.2252 0.0271906 10.0978 0.0800163C9.97047 0.132842 9.85476 0.210266 9.75733 0.307858L0.307423 9.75776C0.160625 9.90461 0.060659 10.0917 0.0201635 10.2953C-0.0203321 10.499 0.000460893 10.7101 0.0799136 10.9019C0.159366 11.0937 0.293911 11.2577 0.46654 11.3731C0.639169 11.4884 0.84213 11.5501 1.04977 11.5501ZM8.39969 18.9V13.6501H12.5997V18.9H8.39969ZM10.4997 2.53489L16.7996 8.83482V13.6501L16.8007 18.9H14.6996V13.6501C14.6996 12.4919 13.7578 11.5501 12.5997 11.5501H8.39969C7.24155 11.5501 6.29971 12.4919 6.29971 13.6501V18.9H4.19973V8.83482L10.4997 2.53489Z" fill="#F2F5FA"/>
</svg>
