<svg width="21" height="21" viewBox="0 0 21 21" fill="none" xmlns="http://www.w3.org/2000/svg">
<path d="M15.5 14.25L19.5 10.5M19.5 10.5L15.5 6.75M19.5 10.5H5.5M11.5 14.25V15.1875C11.5 15.9334 11.1839 16.6488 10.6213 17.1762C10.0587 17.7037 9.29565 18 8.5 18H4.5C3.70435 18 2.94129 17.7037 2.37868 17.1762C1.81607 16.6488 1.5 15.9334 1.5 15.1875V5.8125C1.5 5.06658 1.81607 4.35121 2.37868 3.82376C2.94129 3.29632 3.70435 3 4.5 3H8.5C9.29565 3 10.0587 3.29632 10.6213 3.82376C11.1839 4.35121 11.5 5.06658 11.5 5.8125V6.75" stroke="#F2F5FA" stroke-width="1.3" stroke-linecap="round" stroke-linejoin="round"/>
</svg>
