<svg width="21" height="21" viewBox="0 0 21 21" fill="none" xmlns="http://www.w3.org/2000/svg">
<path d="M3 5.35714C3 4.73199 3.24834 4.13244 3.69039 3.69039C4.13244 3.24834 4.73199 3 5.35714 3H13.6071C14.2323 3 14.8318 3.24834 15.2739 3.69039C15.7159 4.13244 15.9643 4.73199 15.9643 5.35714V13.6071H19.5V15.9643C19.5 16.902 19.1275 17.8013 18.4644 18.4644C17.8013 19.1275 16.902 19.5 15.9643 19.5H6.53571C5.59798 19.5 4.69866 19.1275 4.03559 18.4644C3.37251 17.8013 3 16.902 3 15.9643V5.35714ZM15.9643 14.7857V18.3214C16.5894 18.3214 17.189 18.0731 17.631 17.631C18.0731 17.189 18.3214 16.5894 18.3214 15.9643V14.7857H15.9643ZM14.7857 18.3214V5.35714C14.7857 5.04457 14.6615 4.74479 14.4405 4.52377C14.2195 4.30274 13.9197 4.17857 13.6071 4.17857H5.35714C5.04457 4.17857 4.74479 4.30274 4.52377 4.52377C4.30274 4.74479 4.17857 5.04457 4.17857 5.35714V15.9643C4.17857 16.5894 4.42691 17.189 4.86896 17.631C5.31101 18.0731 5.91056 18.3214 6.53571 18.3214H14.7857ZM6.53571 7.125C6.53571 6.96871 6.5978 6.81882 6.70831 6.70831C6.81882 6.5978 6.96871 6.53571 7.125 6.53571H11.8393C11.9956 6.53571 12.1455 6.5978 12.256 6.70831C12.3665 6.81882 12.4286 6.96871 12.4286 7.125C12.4286 7.28129 12.3665 7.43118 12.256 7.54169C12.1455 7.6522 11.9956 7.71429 11.8393 7.71429H7.125C6.96871 7.71429 6.81882 7.6522 6.70831 7.54169C6.5978 7.43118 6.53571 7.28129 6.53571 7.125ZM6.53571 10.6607C6.53571 10.5044 6.5978 10.3545 6.70831 10.244C6.81882 10.1335 6.96871 10.0714 7.125 10.0714H11.8393C11.9956 10.0714 12.1455 10.1335 12.256 10.244C12.3665 10.3545 12.4286 10.5044 12.4286 10.6607C12.4286 10.817 12.3665 10.9669 12.256 11.0774C12.1455 11.1879 11.9956 11.25 11.8393 11.25H7.125C6.96871 11.25 6.81882 11.1879 6.70831 11.0774C6.5978 10.9669 6.53571 10.817 6.53571 10.6607ZM6.53571 14.1964C6.53571 14.0401 6.5978 13.8903 6.70831 13.7797C6.81882 13.6692 6.96871 13.6071 7.125 13.6071H9.48214C9.63843 13.6071 9.78832 13.6692 9.89883 13.7797C10.0093 13.8903 10.0714 14.0401 10.0714 14.1964C10.0714 14.3527 10.0093 14.5026 9.89883 14.6131C9.78832 14.7236 9.63843 14.7857 9.48214 14.7857H7.125C6.96871 14.7857 6.81882 14.7236 6.70831 14.6131C6.5978 14.5026 6.53571 14.3527 6.53571 14.1964Z" fill="#F2F5FA"/>
</svg>
