<svg width="22" height="19" viewBox="0 0 22 19" fill="none" xmlns="http://www.w3.org/2000/svg">
<path d="M20.3077 0H1.69231C1.24348 0 0.813035 0.18198 0.495665 0.505906C0.178296 0.829833 0 1.26917 0 1.72727V17.2727C0 17.7308 0.178296 18.1702 0.495665 18.4941C0.813035 18.818 1.24348 19 1.69231 19H3.10962C3.26984 19.0005 3.42681 18.9539 3.56183 18.8658C3.69685 18.7778 3.80423 18.652 3.87115 18.5034C4.28517 17.6191 4.93595 16.8724 5.74826 16.3496C6.56058 15.8269 7.50126 15.5495 8.46154 15.5495C9.42182 15.5495 10.3625 15.8269 11.1748 16.3496C11.9871 16.8724 12.6379 17.6191 13.0519 18.5034C13.1189 18.652 13.2262 18.7778 13.3612 18.8658C13.4963 18.9539 13.6532 19.0005 13.8135 19H20.3077C20.7565 19 21.187 18.818 21.5043 18.4941C21.8217 18.1702 22 17.7308 22 17.2727V1.72727C22 1.26917 21.8217 0.829833 21.5043 0.505906C21.187 0.18198 20.7565 0 20.3077 0V0ZM5.92308 11.2273C5.92308 10.7148 6.07196 10.2139 6.35089 9.78784C6.62981 9.36177 7.02627 9.02968 7.49011 8.83358C7.95395 8.63748 8.46435 8.58617 8.95677 8.68615C9.44918 8.78612 9.90149 9.03288 10.2565 9.39522C10.6115 9.75757 10.8533 10.2192 10.9512 10.7218C11.0492 11.2244 10.9989 11.7453 10.8068 12.2188C10.6146 12.6922 10.2893 13.0968 9.87183 13.3815C9.45438 13.6662 8.9636 13.8182 8.46154 13.8182C7.78915 13.8153 7.1451 13.5415 6.66965 13.0562C6.1942 12.5709 5.92586 11.9135 5.92308 11.2273ZM20.3077 17.2727H14.3212C13.6149 16.0326 12.5512 15.0449 11.275 14.4443C11.9155 13.8622 12.3676 13.0951 12.5713 12.2448C12.7749 11.3945 12.7206 10.5011 12.4155 9.683C12.1104 8.86491 11.5688 8.16079 10.8627 7.66398C10.1566 7.16717 9.31918 6.90113 8.46154 6.90113C7.6039 6.90113 6.76651 7.16717 6.06037 7.66398C5.35424 8.16079 4.81272 8.86491 4.50759 9.683C4.20246 10.5011 4.14813 11.3945 4.35181 12.2448C4.55549 13.0951 5.00755 13.8622 5.64808 14.4443C4.37187 15.0449 3.30816 16.0326 2.60192 17.2727H1.69231V1.72727H20.3077V17.2727ZM3.38462 6.04545V4.31818C3.38462 4.08913 3.47376 3.86946 3.63245 3.7075C3.79113 3.54553 4.00636 3.45454 4.23077 3.45454H17.7692C17.9936 3.45454 18.2089 3.54553 18.3676 3.7075C18.5262 3.86946 18.6154 4.08913 18.6154 4.31818V14.6818C18.6154 14.9109 18.5262 15.1305 18.3676 15.2925C18.2089 15.4545 17.9936 15.5455 17.7692 15.5455H16.0769C15.8525 15.5455 15.6373 15.4545 15.4786 15.2925C15.3199 15.1305 15.2308 14.9109 15.2308 14.6818C15.2308 14.4528 15.3199 14.2331 15.4786 14.0711C15.6373 13.9092 15.8525 13.8182 16.0769 13.8182H16.9231V5.18182H5.07692V6.04545C5.07692 6.2745 4.98777 6.49417 4.82909 6.65614C4.67041 6.8181 4.45518 6.90909 4.23077 6.90909C4.00636 6.90909 3.79113 6.8181 3.63245 6.65614C3.47376 6.49417 3.38462 6.2745 3.38462 6.04545Z" fill="#F2F5FA"/>
</svg>
