<svg width="465" height="575" viewBox="0 0 465 575" fill="none" xmlns="http://www.w3.org/2000/svg">
<rect x="17" y="16" width="49" height="50" rx="5" fill="#7F1AFE"/>
<rect x="0.5" y="0.5" width="49" height="48" rx="4.5" stroke="#1E283C"/>
<rect x="135" y="368" width="25" height="26" rx="4" fill="#7F1AFE"/>
<rect x="117.5" y="352.5" width="30" height="29" rx="3.5" stroke="#1E283C"/>
<circle cx="325" cy="133" r="41" fill="#7F1AFE"/>
<circle cx="301" cy="157" r="40.5" stroke="#1E283C"/>
<path d="M415.536 478C417.076 475.333 420.924 475.333 422.464 478L455.373 535C456.913 537.667 454.988 541 451.909 541H386.091C383.012 541 381.087 537.667 382.627 535L415.536 478Z" fill="#7F1AFE"/>
<path d="M393.969 489.25C395.316 486.917 398.684 486.917 400.031 489.25L432.94 546.25C434.287 548.583 432.603 551.5 429.909 551.5H364.091C361.397 551.5 359.713 548.583 361.06 546.25L393.969 489.25Z" stroke="#1E283C"/>
</svg>
